<?xml version="1.0" encoding="UTF-8" standalone="no"?>
<!-- Created with Inkscape (http://www.inkscape.org/) -->

<svg
   width="20"
   height="20"
   viewBox="0 0 5.2916666 5.2916668"
   version="1.1"
   id="svg1"
   xml:space="preserve"
   inkscape:version="1.4.4 (dcaf3e7d9e, 2026-05-05)"
   sodipodi:docname="concert-digital-favicon.svg"
   xmlns:inkscape="http://www.inkscape.org/namespaces/inkscape"
   xmlns:sodipodi="http://sodipodi.sourceforge.net/DTD/sodipodi-0.dtd"
   xmlns="http://www.w3.org/2000/svg"
   xmlns:svg="http://www.w3.org/2000/svg"><sodipodi:namedview
     id="namedview1"
     pagecolor="#ffffff"
     bordercolor="#000000"
     borderopacity="0.25"
     inkscape:showpageshadow="2"
     inkscape:pageopacity="0.0"
     inkscape:pagecheckerboard="0"
     inkscape:deskcolor="#d1d1d1"
     inkscape:document-units="px"
     inkscape:zoom="2.4227038"
     inkscape:cx="12.382859"
     inkscape:cy="-7.2233346"
     inkscape:window-width="3840"
     inkscape:window-height="2123"
     inkscape:window-x="0"
     inkscape:window-y="0"
     inkscape:window-maximized="1"
     inkscape:current-layer="layer1" /><defs
     id="defs1" /><g
     inkscape:label="Layer 1"
     inkscape:groupmode="layer"
     id="layer1"
     transform="translate(-51.721004,-128.03493)"><g
       id="g2"><rect
         style="fill:#ffffff;fill-opacity:1;stroke-width:2.17419;stroke-linejoin:round"
         id="rect1"
         width="5.2916665"
         height="5.2916665"
         x="51.721004"
         y="128.03493"
         ry="0.00039201701" /><g
         id="g1"
         transform="matrix(0.05673845,0,0,0.05673845,51.747006,127.91352)"><path
           style="fill:#515eaa;fill-opacity:1;stroke:none;stroke-width:4.39999;paint-order:stroke fill markers"
           d="m 52.788416,22.313536 v 13.229166 a 13.229167,13.229167 0 0 1 13.229166,13.229164 13.229167,13.229167 0 0 1 -13.229166,13.22917 v 13.22917 A 26.458334,26.458334 0 0 0 79.246749,48.771866 26.458334,26.458334 0 0 0 52.788416,22.313536 Z"
           id="path11" /><path
           style="fill:#0c133d;fill-opacity:1;stroke:none;stroke-width:4.39999;paint-order:stroke fill markers"
           d="m 52.788416,9.084369 a 39.6875,39.6875 0 0 0 -39.6875,39.687497 39.6875,39.6875 0 0 0 39.6875,39.6875 V 75.230206 A 26.458334,26.458334 0 0 1 26.330082,48.771866 26.458334,26.458334 0 0 1 52.788416,22.313536 Z"
           id="path3" /></g></g></g></svg>
